<svg xmlns="http://www.w3.org/2000/svg" viewBox="0 0 100 100">
  <defs>
    <linearGradient id="pyYellow" gradientTransform="rotate(45)">
      <stop offset="0.6" stop-color="#fe5"/>
      <stop offset="1" stop-color="#da1"/>
    </linearGradient>
    <linearGradient id="pyBlue" gradientTransform="rotate(45)">
      <stop offset="0.4" stop-color="#69f"/>
      <stop offset="1" stop-color="#468"/>
    </linearGradient>
  </defs>
  <path fill="url(#pyBlue)" d="M27,16c0-7,9-13,24-13c15,0,23,6,23,13l0,22c0,7-5,12-11,12l-24,0c-8,0-14,6-14,15l0,10l-9,0c-8,0-13-9-13-24c0-14,5-23,13-23l35,0l0-3l-24,0l0-9l0,0z M88,50v1"/>
  <path fill="url(#pyYellow)" d="M74,87c0,7-8,13-23,13c-15,0-24-6-24-13l0-22c0-7,6-12,12-12l24,0c8,0,14-7,14-15l0-10l9,0c7,0,13,9,13,23c0,15-6,24-13,24l-35,0l0,3l23,0l0,9l0,0z M140,50v1"/>
  <circle cx="64" cy="88" r="4" fill="#FFF"/>
  <circle cx="37" cy="15" r="4" fill="#FFF"/>
</svg>
